Coordinates
version=1
nRows=6
nColumns=36
inDegrees=yes

Units are S.I. units (second, meters, Newtons, ...)
If the header above contains a line with 'inDegrees', this indicates whether rotational values are in degrees (yes) or radians (no).

endheader
time	pelvis_tilt	pelvis_list	pelvis_rotation	pelvis_tx	pelvis_ty	pelvis_tz	hip_flexion_r	hip_adduction_r	hip_rotation_r	knee_angle_r	knee_angle_r_beta	ankle_angle_r	subtalar_angle_r	mtp_angle_r	hip_flexion_l	hip_adduction_l	hip_rotation_l	knee_angle_l	knee_angle_l_beta	ankle_angle_l	subtalar_angle_l	mtp_angle_l	lumbar_extension	lumbar_bending	lumbar_rotation	arm_flex_r	arm_add_r	arm_rot_r	elbow_flex_r	pro_sup_r	arm_flex_l	arm_add_l	arm_rot_l	elbow_flex_l	pro_sup_l
      4.85000000	     -3.93980715	     -3.53142297	      2.81565173	      0.16315423	      0.92667264	     -0.20092276	      8.02905036	      0.40756211	     -2.13708552	      3.16296074	      0.05520408	      7.28647597	      0.53891130	     -7.49999987	      9.87074784	      1.55546638	     -7.52763047	      4.38989847	      0.07661818	      5.79510320	      1.20676845	     -7.49999987	      7.87032748	     -0.82607815	      0.98833506	     37.17477417	      7.81971268	     68.40211194	    132.53455122	     94.52672964	     37.75574077	      4.27678192	     60.74328173	    129.52785964	     78.81280679
      4.86666670	     -4.00091251	     -3.47427322	      2.61968785	      0.16920339	      0.92833825	     -0.19743004	      7.76989984	      0.42132297	     -1.99117266	      2.83031225	      0.04939827	      7.00607397	      0.83327540	     -7.49999987	      9.92326918	      1.44792292	     -7.61548942	      4.68163177	      0.08170989	      5.96704981	      0.95783528	     -7.49999987	      8.11421627	     -0.79709875	      1.08800016	     37.43903500	      7.78997043	     68.17110143	    132.29566513	     94.51653567	     37.76564983	      4.58017819	     60.87060417	    129.48109285	     78.82171532
      4.88333330	     -4.00830880	     -3.44100513	      2.32785321	      0.17427531	      0.93158687	     -0.19433814	      7.32819680	      0.50665190	     -1.86347100	      2.44626856	      0.04269544	      6.77911750	      1.23068925	     -7.49999987	      9.75199983	      1.30172300	     -7.66440530	      4.85269374	      0.08469548	      6.18314489	      0.68203200	     -7.49999987	      8.52416658	     -0.57826151	      1.46700530	     37.02562740	      7.79746614	     67.95101265	    131.82304062	     94.49948601	     37.63403661	      4.63570723	     61.08373298	    129.15169225	     78.82457579
      4.90000000	     -3.97975025	     -3.35853569	      2.08128337	      0.17457742	      0.93184216	     -0.19365750	      6.96126795	      0.50848381	     -1.78001477	      2.18301242	      0.03810075	      6.62077092	      1.68184107	     -7.49999987	      9.41177697	      1.25511469	     -7.69252872	      4.74113952	      0.08274849	      6.17238023	      0.33071330	     -7.49999987	      8.91282385	     -0.62508226	      1.94569617	     36.06183758	      7.48721245	     67.28538671	    131.97004790	     94.51994104	     38.07485316	      5.33309854	     61.82736523	    128.09567263	     77.96439016
      4.91666670	     -3.78815888	     -3.17402044	      1.92904828	      0.17960497	      0.93239391	     -0.19056782	      6.28521705	      0.46637056	     -1.81583766	      1.81016818	      0.03159339	      6.50203754	      2.13386278	     -7.49999987	      8.63512144	      1.31066881	     -7.72846061	      4.42306146	      0.07719699	      5.83743301	     -0.23088637	     -7.49999987	      9.26631038	     -0.70884347	      1.75490642	     35.46697687	      7.65875391	     67.59744315	    131.99588154	     90.04055690	     38.28256186	      5.31887936	     61.97501887	    127.57112003	     75.41282650
      4.93333330	     -3.67418869	     -2.94254425	      1.80289204	      0.17964539	      0.93263306	     -0.18965984	      5.73212771	      0.34207757	     -1.58165521	      1.45741118	      0.02543662	      6.53938700	      2.39890007	     -7.49999987	      8.01133803	      1.44409409	     -7.92131131	      4.02141983	      0.07018702	      5.64320761	     -0.36406798	     -7.49999987	      9.59583688	     -0.85480937	      1.66619602	     34.72693173	      7.73226162	     67.77459230	    131.97204519	     88.26899209	     38.56801827	      5.37375446	     62.01898768	    127.00504193	     74.22890738
